Coordinates
version=1
nRows=15
nColumns=26
inDegrees=yes

Units are S.I. units (second, meters, Newtons, ...)
If the header above contains a line with 'inDegrees', this indicates whether rotational values are in degrees (yes) or radians (no).

endheader
time	pelvis_tilt	pelvis_list	pelvis_rotation	pelvis_tx	pelvis_ty	pelvis_tz	hip_flexion_r	hip_adduction_r	hip_rotation_r	knee_angle_r	knee_angle_r_beta	hip_flexion_l	hip_adduction_l	hip_rotation_l	knee_angle_l	knee_angle_l_beta	lumbar_extension	lumbar_bending	lumbar_rotation	ankle_angle_r	subtalar_angle_r	mtp_angle_r	ankle_angle_l	subtalar_angle_l	mtp_angle_l
      3.24666667	      4.32018920	     -5.88612687	      1.69059305	      0.53817821	      0.88592566	     -0.31715703	    -18.17003492	      6.07083939	    -15.53116241	     17.28842863	      0.30174000	     23.35462886	     -2.80329896	      6.28696025	      7.51795729	      0.13121311	    -13.67490442	     10.09823862	      0.18351132	     11.70261655	     12.29985569	      0.00000000	     -0.91311671	     -7.02038050	      0.00000000
      3.25333333	      4.67184040	     -5.58947557	      1.65454490	      0.54844255	      0.88537907	     -0.31782979	    -18.50597709	      5.36889882	    -15.77378722	     18.74076716	      0.32708809	     23.32701249	     -2.47491462	      5.57591284	      9.04740977	      0.15790709	    -13.88527456	      9.61725510	      0.05234460	     10.79576903	     12.24976711	      0.00000000	     -1.51800332	     -7.52500692	      0.00000000
      3.26000000	      4.53241169	     -5.13252105	      1.44151499	      0.55859939	      0.88427357	     -0.31894891	    -17.92692537	      4.19133736	    -16.35950431	     21.04178895	      0.36724850	     23.72704588	     -1.94583786	      5.00366274	     10.49804058	      0.18322537	    -13.53002931	      9.03609239	      0.15318446	      9.88348280	     12.44085173	      0.00000000	     -2.50832308	     -8.88049928	      0.00000000
      3.26666667	      4.54295889	     -4.66676713	      1.32414353	      0.56880607	      0.88342708	     -0.31998390	    -17.55276117	      3.07280413	    -16.84958784	     23.20133751	      0.40493973	     24.00284386	     -1.42627510	      4.31093372	     12.09841292	      0.21115714	    -13.33474242	      8.40952013	     -0.00057919	      8.91404582	     12.80747951	      0.00000000	     -3.80322634	    -10.27037174	      0.00000000
      3.27333333	      4.80621310	     -4.17308673	      1.28123998	      0.57900825	      0.88306861	     -0.32102744	    -17.49448958	      1.99491435	    -17.21055532	     25.15256432	      0.43899506	     23.95968478	     -0.90013862	      3.60412170	     13.71076663	      0.23929802	    -13.45107048	      7.73841233	     -0.07847042	      7.29480443	     12.68139874	      0.00000000	     -4.40874375	    -10.70656605	      0.00000000
      3.28000000	      4.83249863	     -3.54469290	      1.15738923	      0.58917908	      0.88252250	     -0.32229478	    -17.00298093	      0.63349989	    -17.62180958	     27.45953784	      0.47925935	     24.07166868	     -0.22700435	      2.93887201	     15.19571340	      0.26521523	    -13.28971686	      6.95555950	     -0.15294697	      5.47934603	     12.54580706	      0.00000000	     -4.97325108	    -11.22882903	      0.00000000
      3.28666667	      4.67113846	     -2.81885456	      0.98275102	      0.59925010	      0.88179109	     -0.32365959	    -16.14373420	     -0.93261252	    -18.04464639	     30.05298839	      0.52452360	     24.32677737	      0.55797609	      2.32594596	     16.57076589	      0.28921442	    -12.90138656	      6.06675096	     -0.27003413	      3.75786017	     12.58494840	      0.00000000	     -5.73133510	    -12.08417255	      0.00000000
      3.29333333	      4.78957083	     -2.14390951	      0.92824663	      0.60928062	      0.88161493	     -0.32484270	    -15.64924728	     -2.30425576	    -18.29842983	     32.36648598	      0.56490175	     24.22473252	      1.27206788	      1.74554993	     17.87650418	      0.31200386	    -12.86274883	      5.16841711	     -0.40675199	      1.39590594	     12.34867414	      0.00000000	     -5.91509224	    -12.36247893	      0.00000000
      3.30000000	      4.66028386	     -1.27097141	      0.76615204	      0.61922171	      0.88126713	     -0.32646741	    -14.72635294	     -4.03353413	    -18.48846355	     34.92873996	      0.60962152	     24.26191883	      2.23753061	      1.21983693	     18.94497418	      0.33065218	    -12.54354852	      4.17823893	     -0.51794751	     -1.03140033	     11.96546319	      0.00000000	     -5.93888856	    -12.67739022	      0.00000000
      3.30666667	      4.60584480	     -0.43438599	      0.66321919	      0.62906978	      0.88111782	     -0.32791993	    -13.85894755	     -5.64219260	    -18.53639795	     37.39060902	      0.65258924	     24.19857284	      3.15629035	      0.73648590	     19.97835910	      0.34868815	    -12.33145207	      3.16741674	     -0.59443572	     -3.59999536	     11.55452496	      0.00000000	     -5.77624761	    -12.91144323	      0.00000000
      3.31333333	      4.44069646	      0.45441156	      0.50937783	      0.63875512	      0.88095747	     -0.32943491	    -12.73369676	     -7.32244689	    -18.37728623	     39.96616747	      0.69754121	     24.14639096	      4.14192537	      0.32228847	     20.77259202	      0.36255012	    -12.00900448	      2.11992586	     -0.71802078	     -6.06176845	     10.95540774	      0.00000000	     -5.44790171	    -13.13185991	      0.00000000
      3.32000000	      4.30984061	      1.30264259	      0.39159636	      0.64829420	      0.88098446	     -0.33083734	    -11.60223309	     -8.87231224	    -18.05455877	     42.42639631	      0.74048031	     24.03335364	      5.09055860	     -0.04657953	     21.51656175	      0.37553485	    -11.75204249	      1.09501575	     -0.81076134	     -8.49310366	     10.33371895	      0.00000000	     -4.98462509	    -13.33420916	      0.00000000
      3.32666667	      4.12010589	      2.15214379	      0.28681318	      0.65767759	      0.88108795	     -0.33219254	    -10.32763783	    -10.33390486	    -17.48681222	     44.83836174	      0.78257704	     23.91439217	      6.04902980	     -0.36457419	     22.09237537	      0.38558469	    -11.46416941	      0.06053790	     -0.87359682	    -10.68404748	      9.59981887	      0.00000000	     -4.40186209	    -13.52387170	      0.00000000
      3.33333333	      3.72898051	      2.97789362	      0.07481346	      0.66686632	      0.88102025	     -0.33341219	     -8.63912504	    -11.75264963	    -16.66673219	     47.36615578	      0.82669537	     23.95396606	      6.96138651	     -0.66365407	     22.52740102	      0.39317732	    -10.93206262	     -0.92748738	     -0.88232507	    -12.47455208	      8.42562981	      0.00000000	     -3.73668201	    -13.63010409	      0.00000000
      3.34000000	      3.49607612	      3.73005451	     -0.04832879	      0.67599658	      0.88134191	     -0.33458297	     -7.15130146	    -12.95318524	    -15.75409777	     49.63529014	      0.86629924	     23.75623528	      7.82824986	     -0.83234107	     22.85197854	      0.39884227	    -10.61999697	     -1.85099199	     -0.92643313	    -14.14910348	      7.57284911	      0.00000000	     -2.93225334	    -13.83678084	      0.00000000
